<?xml version="1.0" encoding="UTF-8"?>
<svg width="20px" height="17px" viewBox="0 0 20 17" version="1.1" xmlns="http://www.w3.org/2000/svg" xmlns:xlink="http://www.w3.org/1999/xlink">
    <!-- Generator: Sketch 48.1 (47250) - http://www.bohemiancoding.com/sketch -->
    <title>Fill 1</title>
    <desc>Created with Sketch.</desc>
    <defs></defs>
    <g id="Banner---ACOS" stroke="none" stroke-width="1" fill="none" fill-rule="evenodd" transform="translate(-280.000000, -22.000000)">
        <g fill="#959595" id="Fill-1">
            <path d="M299.849607,29.5928141 L297.282881,27.510239 L297.282881,22.6031788 C297.282881,22.2716315 297.01145,22 296.679702,22 L294.669106,22 C294.337358,22 294.065927,22.2716315 294.065927,22.6031788 L294.065927,24.8994803 L290.843143,22.2842983 C290.609311,22.0949001 290.302896,22 289.99628,22 C289.689866,22 289.38325,22.0949001 289.149417,22.2842983 L284.085129,26.3941572 L280.15361,29.5843696 C280.05891,29.6818835 280,29.8147839 280,29.9615574 C280,30.1111457 280.06072,30.247062 280.158837,30.344777 C280.257155,30.4430951 280.39287,30.5038151 280.54266,30.5038151 L282.717119,30.5038151 L282.717119,37.9757924 C282.717119,38.5287063 283.169503,38.9810903 283.722417,38.9810903 L288.257517,38.9810903 L288.257517,34.4741387 L291.742684,34.4741387 L291.742684,38.9810903 L296.277583,38.9810903 C296.830497,38.9810903 297.282881,38.5287063 297.282881,37.9757924 L297.282881,30.5038151 L299.503785,30.5038151 C299.634876,30.4927568 299.7533,30.4374654 299.841163,30.3498035 C299.939079,30.2514853 300,30.1159712 300,29.9661818 C300,29.8210168 299.942296,29.690127 299.849607,29.5928141"></path>
        </g>
    </g>
</svg>